<svg width="112" height="139" viewBox="0 0 112 139" fill="none" xmlns="http://www.w3.org/2000/svg">
<path d="M42.6064 27.9625L31.7281 38.8407M55.9707 43.2088L37.8667 60.8298M85.6878 72.9051L74.8095 83.7833M98.9032 86.3985L88.025 97.2767M37.3268 23.9046L26.4486 34.7828M50.6912 39.1509L39.813 50.0292M80.5224 68.9599L61.8153 87.667M93.6237 82.3406L82.7455 93.2189M30.4249 15.1934L2.10889 43.5602L32.9253 75.0541L61.2909 46.7368L30.4249 15.1934ZM78.1377 63.5774L49.7367 91.8595L81.1943 122.504L109.51 94.1372L78.1377 63.5774ZM94.5838 21.9713C92.2421 19.6295 88.4459 19.6279 86.1021 21.9677L18.4336 89.5211C17.7758 90.1778 17.2795 90.9783 16.984 91.8595L12.7117 104.598C11.1347 109.3 15.6192 113.776 20.3184 112.191L32.6074 108.045C33.479 107.751 34.2713 107.26 34.9231 106.611L102.964 38.8549C105.316 36.5132 105.32 32.7073 102.973 30.3607L94.5838 21.9713Z" stroke="#A98B5E" stroke-width="3"/>
</svg>
