<?xml version="1.0" encoding="UTF-8"?>
<svg id="Layer_1" xmlns="http://www.w3.org/2000/svg" xmlns:xlink="http://www.w3.org/1999/xlink" version="1.1" viewBox="0 0 432 432">
  <!-- Generator: Adobe Illustrator 29.8.1, SVG Export Plug-In . SVG Version: 2.1.1 Build 2)  -->
  <image width="1771" height="1337" transform="translate(23 67.8) scale(.2)" xlink:href="../../../../../my art/my signature and logo/signature.png"/>
  <circle cx="216" cy="216" r="199.4"/>
  <path id="logo" d="M368.5,286.3s-8.8,2.6-10.9,2.6-9.2,1.1-9.2,1.1c0,0,.4,1.9,1.5,2.4,1.1.4,6.6.6,6.5,1.5-.2,2.4-41.7,10.8-125.9-16.2-15.6-5-59.8-24.4-59.8-24.4,0,0,11.6-22.4,14.2-27.5,2.6-5.1,9.4-21.2,9.4-21.2,0,0,11.5-.5,19.2-4.8s4.3-2.6,5.3-5l-1.8-11.7c-2.6-3.2-13.3-3.6-13.3-3.6,0,0,8.5-35.5,10.5-39.4l2-3.9s1.9.6,1,4.5c-.9,3.9-2.9,12.4-2.9,12.4,0,0,.7,2.2,1.9,1.7,1.2-.4.9,0,1.6-1.2.7-1.2,1.4-4.6,2-5.5s2.3-3,2.3-3c0,0-1.4,7.6-1.1,8.9.4,1.3,2.1,2.2,2.8,2,.8-.2,3.6-2.2,4-2.8.4-.6,2.6-2,2.6-2,0,0,5.3,6.3,11.7,6.6,6.4.3,10.8-3.4,10.8-3.4,0,0,0-.9-.2-1.3-.2-.4-1.2-1.3-1.2-1.3,0,0-5.6,3-10.6,1.2-5-1.8-8.4-6.2-8.4-6.2,0,0-1.2-.9-1.7-.9-.5,0-5.7,4.6-5.7,4.6,0,0,.7-4.9.8-6,.1-1.1.1-3.5-.2-4-.3-.4-1.5-2.7-2.2-2.6-.7.1-3,2.6-3,2.6,0,0,.3-4.5,0-6.1-.4-1.6-1.9-3.8-2.7-4-.8-.2-5.4,2.2-8.2,10.2-2.8,8-10.1,38.9-10.1,38.9,0,0-13.5.6-20.8,9.6-3.3,4.1-6,9.8-6,9.8l-24.3,3.5s4.7-11.4,5.5-14.3c.9-2.9,6.4-27.7,6.4-27.7,0,0,3.1-1,4.1-1s11.6-.7,12.7-1.2c1.1-.5,5-3,5.2-3.7.2-.7.3-3.4.3-3.4,0,0-3.3-4.3-4.1-4.7-.8-.4-4.6,0-5.2-.1-.6-.1-3.4-2.3-3.4-2.3,0,0,1-3.1.7-4.2-.3-1.1-.5-.8-.5-.8,0,0-.6-.3-.8-.8-.2-.4-.2-1.3-1-1.6-.8-.3-6.9-.3-6.9-.3,0,0-.8-.6-.6-.8.1-.2,5-4.1,5-4.1,0,0,.7,0,1.2-.1.4,0,10.8-3.9,11.3-5,.5-1.1.6-1.5.6-1.5,0,0,2.3-3.3,2.1-3.9-.2-.6-.5-1-.5-1,0,0,0-.8.3-1.1.2-.3-.7-2.1-1-2.3-.4-.1-1-.2-1.5-.5-.5-.3-1.4-2.1-2.6-1.9-1.2.3-9.5,4.2-9.5,4.2,0,0,8.1-6.6,10.2-11.4,2.1-4.8,3.3-12.2,2.1-13.8-1.2-1.6-2-1.8-2.2-2.2-.2-.4,0-.5-.5-1.2-.5-.7-1.2-1.5-1.8-1.6-.6,0-4.7,3.1-4.8,3.8,0,.7,0,.9,0,.9,0,0-1.7.8-2,1.4-.3.5-.2,3.1-.2,3.1l-4.9,7-1.8-1.8c-.9-.9-1.8-.9-2.7-2.7s0-6.3-.9-8.1-.8-2.9-1.3-3.1l-.5-.2s-.8-.1-1.2-.7c-.4-.5-1.1-1.8-1.5-1.8s-3.3,2.5-3.7,3.3c-.4.8-.5,1.9-.5,1.9,0,0-.7.3-.9.9-.3.6-3,8.5-2.3,13.2.7,4.7,3.8,4.6,4.4,4.9.6.3.8.9,1.9,1.3,1,.3,8.3,2.1,8.3,2.1,0,0-.6,3.6-1.3,5.2-.7,1.5-2.7,5.1-2,6.4.8,1.2,1.5,1.5,3.4,1.7,1.9.2,6.8-1.1,6.8-1.1,0,0-6.5,6.2-9.7,8.4-3.2,2.1-9.8,6.3-9.8,6.3,0,0-7-.6-8.7.5s-3.6,3.2-3.6,3.8.3,1,.3,1c0,0-1.8,1.2-1.9,1.8-.2.6.2.9.2.9l-.5.3s0,1.1.7,1.6c.7.4,1.3.7,1.5,1,.2.3,1.1,1.7,3.1,1.5,2-.2,3-1.6,3.7-1.8s14-5.3,14-5.3l.2,1.1s-10.3,5.2-11,5.3c-.7.2-2.4,0-3.5.7-1.1.6-6.2,4.3-7.5,6-1.3,1.7-1.7,3.3-1.7,3.3,0,0-1.4,1-1.5,2.3-.1,1.3,0,2.1.6,2.7.6.6,1.3.6,1.5.8.2.2.7,1.1,2.9,1.1s4.5-1.3,5.7-1.6c1.2-.3,3.4-.8,4-1.1.7-.3,3.3-1.9,4.7-2.3,1.3-.4,3.7-.7,3.7-.7,0,0-1.2,9.2-5.3,20.4-4.1,11.2-8.9,20.4-8.9,20.4,0,0-17.5,2.8-20.2,3.4-2.7.5-15.7,3.6-15.7,3.6,0,0-18-9.8-31.8-5-13.8,4.8-32.3,27-29.5,61.2,2.8,34.3,32.7,52.2,67.1,34.1,28-14.7,46.1-49.3,46.1-49.3l9.7,5.6s-15.9,28.2-37.3,45.6c-29.2,23.8-47.3,24.7-47.3,24.7v3s23.6,1.4,61.3-36.2c15.2-15.1,26.5-35.7,26.5-35.7,0,0,40.6,20.6,102.2,36.3,43.9,11.2,91.7,14.1,99.8,4.6,5.7-6.8-1.7-13.5-1.7-13.5ZM163.3,149.9c.9-.6,3.1-2.2,3.1-2.2l4,4.1s-3,.5-4.9.7c-1.9.2-4.4,1.6-4.4,1.6l-.4-3.3s1.6-.4,2.5-1ZM148.9,159s1.5-2.3,2-2.6c.5-.3,3.6-1.9,3.6-1.9l-.3,3.3-5.3,1.2ZM202.4,183s2.8-.2,5.7.2,4.6.9,4.6.9c0,0-2.9,3.6-5.3,4.9s-8.1,4-8.1,4c0,0,1.1-3.1,1.5-4.1s1.7-6,1.7-6ZM188,185.7c6.1-2.9,10.7-2.7,10.7-2.7,0,0-1.5,4.1-2.1,5.4s-2.5,5.7-2.5,5.7l-17,4.2s4.7-9.8,10.8-12.6ZM133,211s-7.6,4.9-9.3,5.8c-1.7.9-7.6,2-7.6,2l-6-4.1,23-3.7ZM102.6,216.6l3.4,2.2-6.7-.7,3.2-1.4ZM90.6,301c-39.2,6.7-54.9-36.9-38.2-70.8,16.7-34,44-16.5,44-16.5,0,0-2.6,2.2-3,3.3-.4,1.2-1.7,8.6-1.7,8.6,0,0-.5,4.7,10.4,5.8,10.9,1.1,19-2.5,19-2.5,0,0,14.9,10.5,16.7,11.4,1.7.9,13.6,8.7,13.6,8.7,0,0-21.5,45.4-60.7,52.1ZM154.6,244.1l-26.8-17.8s5.9-3.2,8.8-6.7c3-3.5,7.9-10.7,7.9-10.7,0,0,25.5-3.1,25.9-3.1-.2.6-5.9,17.5-6.8,19.6-.9,2.1-8.9,18.8-8.9,18.8ZM158.7,246.2s7.6-16.6,8.5-19.2,7.5-21.7,7.5-21.7l15.6-.9s-6.9,16.1-10.4,22.8c-3.4,6.7-12.5,24.2-12.5,24.2l-8.8-5.3Z" style="fill: #fff;"/>
</svg>