<svg width="306" height="313" viewBox="0 0 306 313" fill="none" xmlns="http://www.w3.org/2000/svg">
<path d="M39.3403 22C39.3403 17.5817 42.9221 14 47.3403 14H116.372C120.79 14 124.372 17.5817 124.372 22V138.526C124.372 142.944 120.79 146.526 116.372 146.526H47.3403C42.922 146.526 39.3403 142.944 39.3403 138.526V22Z" stroke="#A98B5E" stroke-width="3"/>
<path d="M49.6541 27.9409C49.6541 25.8454 51.2915 24.1468 53.3113 24.1468H64.6671L69.1279 30.8578H94.318L98.5164 24.1468H110.401C112.421 24.1468 114.058 25.8454 114.058 27.9409V132.585C114.058 134.681 112.421 136.379 110.401 136.379H53.3113C51.2915 136.379 49.6541 134.681 49.6541 132.585V27.9409Z" stroke="#A98B5E" stroke-width="3"/>
<path d="M74.1793 66.1742L89.4856 81.4806L74.1793 96.7869L58.8729 81.4806L74.1793 66.1742Z" stroke="#A98B5E" stroke-width="3"/>
<path d="M89.5014 66.1742L104.808 81.4806L89.5014 96.7869L74.1951 81.4806L89.5014 66.1742Z" stroke="#A98B5E" stroke-width="3"/>
<path d="M81.8403 96.634L87.7904 102.584L81.8403 108.534L75.8902 102.584L81.8403 96.634Z" stroke="#A98B5E" stroke-width="3"/>
<path d="M81.8403 55L87.7904 60.9501L81.8403 66.9002L75.8902 60.9501L81.8403 55Z" stroke="#A98B5E" stroke-width="3"/>
<path d="M219.562 38.2076L208.684 49.0858M232.926 53.4539L214.822 71.0749M262.643 83.1502L251.765 94.0285M275.859 96.6436L264.981 107.522M214.282 34.1497L203.404 45.028M227.647 49.3961L216.769 60.2743M257.478 79.205L238.771 97.9121M270.579 92.5857L259.701 103.464M207.38 25.4385L179.064 53.8053L209.881 85.2992L238.246 56.9819L207.38 25.4385ZM255.093 73.8225L226.692 102.105L258.15 132.749L286.466 104.382L255.093 73.8225ZM271.539 32.2164C269.198 29.8746 265.401 29.873 263.058 32.2128L195.389 99.7662C194.731 100.423 194.235 101.223 193.94 102.105L189.667 114.843C188.09 119.545 192.575 124.021 197.274 122.436L209.563 118.29C210.435 117.996 211.227 117.505 211.879 116.856L279.92 49.1C282.271 46.7583 282.275 42.9524 279.929 40.6058L271.539 32.2164Z" stroke="#A98B5E" stroke-width="3"/>
<path d="M135.516 227.461V220.35C135.516 218.601 135.516 215.905 133.719 214.501C131.922 213.097 126.557 212.734 126.557 212.734C126.557 212.734 130.673 206.188 129.193 203.961C127.713 201.735 123.452 202.247 119.848 202.246C116.244 202.246 114.861 202.247 111.392 202.246L48.9012 202.247M135.516 247.316V254.427C135.516 254.535 135.516 254.647 135.515 254.761M135.515 254.761C135.509 256.504 135.404 258.959 133.719 260.276C131.922 261.68 126.971 262.165 126.971 262.165C126.971 262.165 130.673 268.589 129.193 270.815C128.18 272.338 125.866 272.58 123.351 272.581M135.515 254.761L135.516 223.118M135.515 254.761L135.515 255.646M111.392 272.53C114.861 272.53 116.244 272.531 119.848 272.53C120.979 272.53 122.174 272.58 123.328 272.581M123.328 272.581C123.336 272.581 123.343 272.581 123.351 272.581M123.328 272.581H48.3057M123.351 272.581H124.982M32.28 227.512V220.401C32.28 218.652 32.28 215.956 34.0767 214.552C35.8734 213.148 40.9319 212.941 40.9319 212.941C40.9319 212.941 37.123 206.239 38.6027 204.012C40.0824 201.786 44.3431 202.298 47.9475 202.297C51.5519 202.297 52.9342 202.298 56.4037 202.297M32.28 247.316V254.427C32.28 256.175 32.28 258.872 34.0767 260.276C35.8734 261.68 41.5524 261.338 41.5524 261.338C41.5524 261.338 37.123 268.589 38.6027 270.815C40.0824 273.042 44.3431 272.53 47.9475 272.53C51.5519 272.531 52.9342 272.53 56.4037 272.53M32.2799 219.941L32.2799 254.33M26.2161 276.96C24.1671 275.128 22.8773 272.465 22.8773 269.501V201.5C22.8773 195.977 27.3545 191.5 32.8773 191.5H134.818C140.341 191.5 144.818 195.977 144.818 201.5V269.501C144.818 272.421 143.566 275.049 141.57 276.877M154.307 276.645V279.869C154.307 285.944 149.382 290.869 143.307 290.869H24C17.9249 290.869 13 285.944 13 279.869V276.645H154.307Z" stroke="#A98B5E" stroke-width="3"/>
<path d="M240.06 173.148V259.179M240.06 259.179V310.797M240.06 259.179H292.748M240.06 259.179H224.449M246.019 182.289V252.189H286.894C288.845 245.736 289.099 236.439 284.829 226.892C280.075 216.263 267.383 212.908 258.049 221.058C248.715 229.208 252.132 241.554 253.72 244.661H275.185V228.991M234.612 182.289V252.189H228.459C228.459 252.189 226.334 242.164 219.551 237.988C212.768 233.813 201.562 235.177 195.37 240.738C194.395 235.173 194.738 230.716 198.798 224.376C204.046 216.182 220.439 217.055 224.449 224.376C228.459 231.697 228.459 235.351 228.459 239.883C228.459 239.883 224.906 231.814 219.551 228.991C214.196 226.167 207.183 228.246 207.183 228.246V225.642M246.019 304.134L246.019 266.44L286.894 266.44C288.845 272.892 289.099 283.117 284.829 292.664C280.075 303.293 267.383 306.649 258.049 298.498C248.715 290.348 252.132 277.074 253.72 273.968H275.185V292.664M234.612 304.134V266.44H228.459C228.459 266.44 226.334 277.353 219.551 281.528C212.768 285.704 200.754 285.574 193.642 278.669C192.667 284.234 193.011 290.154 197.071 296.494C202.319 304.688 217.424 304.464 222.942 298.498C228.459 292.532 228.459 286.061 228.459 281.528C228.459 281.528 224.455 288.084 219.101 290.907C213.746 293.731 206.049 291.887 206.049 291.887L206.049 295.025M194.572 311H284.641C287.728 311 289.728 308.717 290.868 307.415C293 304.979 293 301.041 293 299.224V215.816C293 214.339 292.527 211.018 290.634 209.558C288.741 208.097 285.744 207.559 284.482 207.472L255.853 209.558C253.609 209.558 251.206 210.119 250.174 207.472C249.383 205.441 250.127 203.061 251.594 201.213C253.061 199.365 255.853 198.397 255.853 190.26C255.853 180.09 249.228 171.745 239.764 172.006C230.299 172.267 223.911 180.872 223.911 190.26C223.911 199.648 228.602 201.213 229.353 202.778C230.238 204.622 230.488 206.067 229.353 208.569C228.65 210.119 225.173 210.032 223.911 210.119L194.572 207.472C193.547 207.559 190.536 208.108 189.233 210.119C188.287 211.579 187.474 213.661 187.474 215.816L187.403 244.04C187.797 245.343 189.346 247.366 192.135 247.951C195.289 248.613 196.273 247.925 198.402 246.621C200.531 245.317 203.346 242.636 210.353 242.636C215.073 242.636 224.514 247.396 223.911 259.793C223.26 273.198 213.43 276.897 208.934 276.897C204.439 276.897 197.622 273.096 196.157 272.203C194.501 271.194 188.586 269.971 187.403 274.404C186.457 277.951 187.474 296.483 187.474 303.177C187.316 304.133 187.665 306.385 188.657 307.968C190.338 310.651 193.152 310.392 194.572 311Z" stroke="#A98B5E" stroke-width="3"/>
</svg>
