<?xml version="1.0" encoding="UTF-8"?>
<svg xmlns="http://www.w3.org/2000/svg" xmlns:xlink="http://www.w3.org/1999/xlink" version="1.1" viewBox="0 0 595.3 841.9">
  <!-- Generator: Adobe Illustrator 29.1.0, SVG Export Plug-In . SVG Version: 2.1.0 Build 142)  -->
  <defs>
    <style>
      .st0, .st1, .st2, .st3, .st4, .st5, .st6, .st7, .st8, .st9, .st10, .st11, .st12, .st13, .st14, .st15, .st16, .st17, .st18, .st19, .st20, .st21, .st22, .st23 {
        fill: none;
      }

      .st24 {
        font-size: 20.6px;
        letter-spacing: .2em;
      }

      .st24, .st1, .st25 {
        isolation: isolate;
      }

      .st24, .st25 {
        font-family: Lato-Regular, Lato;
      }

      .st24, .st25, .st26 {
        fill: #fff;
      }

      .st27 {
        fill: url(#linear-gradient2);
      }

      .st28 {
        fill: url(#linear-gradient1);
      }

      .st29 {
        fill: url(#linear-gradient3);
      }

      .st30 {
        fill: url(#linear-gradient31);
      }

      .st31 {
        fill: url(#linear-gradient30);
      }

      .st32 {
        fill: url(#linear-gradient38);
      }

      .st33 {
        fill: url(#linear-gradient32);
      }

      .st34 {
        fill: url(#linear-gradient39);
      }

      .st35 {
        fill: url(#linear-gradient34);
      }

      .st36 {
        fill: url(#linear-gradient37);
      }

      .st37 {
        fill: url(#linear-gradient35);
      }

      .st38 {
        fill: url(#linear-gradient33);
      }

      .st39 {
        fill: url(#linear-gradient36);
      }

      .st40 {
        fill: url(#linear-gradient40);
      }

      .st41 {
        fill: url(#linear-gradient46);
      }

      .st42 {
        fill: url(#linear-gradient48);
      }

      .st43 {
        fill: url(#linear-gradient47);
      }

      .st44 {
        fill: url(#linear-gradient45);
      }

      .st45 {
        fill: url(#linear-gradient57);
      }

      .st46 {
        fill: url(#linear-gradient58);
      }

      .st47 {
        fill: url(#linear-gradient28);
      }

      .st48 {
        fill: url(#linear-gradient29);
      }

      .st49 {
        fill: url(#linear-gradient18);
      }

      .st50 {
        fill: url(#linear-gradient13);
      }

      .st51 {
        fill: url(#linear-gradient15);
      }

      .st52 {
        fill: url(#linear-gradient16);
      }

      .st53 {
        fill: url(#linear-gradient17);
      }

      .st54 {
        fill: url(#linear-gradient14);
      }

      .st55 {
        fill: url(#linear-gradient19);
      }

      .st56 {
        fill: url(#linear-gradient23);
      }

      .st57 {
        fill: url(#linear-gradient22);
      }

      .st58 {
        fill: url(#linear-gradient24);
      }

      .st59 {
        fill: url(#linear-gradient25);
      }

      .st60 {
        fill: url(#linear-gradient21);
      }

      .st61 {
        fill: url(#linear-gradient20);
      }

      .st62 {
        fill: url(#linear-gradient27);
      }

      .st63 {
        fill: url(#linear-gradient26);
      }

      .st64 {
        fill: url(#radial-gradient);
      }

      .st65 {
        fill: url(#linear-gradient);
      }

      .st1 {
        stroke: #fff;
        stroke-width: 1px;
      }

      .st1, .st2 {
        stroke-miterlimit: 10;
      }

      .st1, .st66 {
        opacity: .2;
      }

      .st25 {
        font-size: 34.1px;
        letter-spacing: .2em;
      }

      .st2 {
        stroke: #231f20;
        stroke-width: .9px;
      }

      .st3 {
        stroke: url(#linear-gradient56);
      }

      .st3, .st4, .st5, .st6, .st7, .st8, .st9, .st10, .st11, .st12, .st13, .st14, .st15, .st16, .st17, .st18, .st19, .st20, .st21, .st22, .st23 {
        stroke-linecap: round;
        stroke-linejoin: round;
        stroke-width: 2px;
      }

      .st4 {
        stroke: url(#linear-gradient54);
      }

      .st5 {
        stroke: url(#linear-gradient53);
      }

      .st6 {
        stroke: url(#linear-gradient55);
      }

      .st7 {
        stroke: url(#linear-gradient51);
      }

      .st8 {
        stroke: url(#linear-gradient50);
      }

      .st9 {
        stroke: url(#linear-gradient52);
      }

      .st10 {
        stroke: url(#linear-gradient10);
      }

      .st11 {
        stroke: url(#linear-gradient12);
      }

      .st12 {
        stroke: url(#linear-gradient11);
      }

      .st13 {
        stroke: url(#linear-gradient49);
      }

      .st14 {
        stroke: url(#linear-gradient43);
      }

      .st15 {
        stroke: url(#linear-gradient44);
      }

      .st16 {
        stroke: url(#linear-gradient41);
      }

      .st17 {
        stroke: url(#linear-gradient42);
      }

      .st18 {
        stroke: url(#linear-gradient8);
      }

      .st19 {
        stroke: url(#linear-gradient7);
      }

      .st20 {
        stroke: url(#linear-gradient9);
      }

      .st21 {
        stroke: url(#linear-gradient6);
      }

      .st22 {
        stroke: url(#linear-gradient4);
      }

      .st23 {
        stroke: url(#linear-gradient5);
      }

      .st67 {
        clip-path: url(#clippath);
      }
    </style>
    <radialGradient id="radial-gradient" cx="351.7" cy="-35" fx="351.7" fy="-35" r="1259.7" gradientTransform="translate(0 842) scale(1 -1)" gradientUnits="userSpaceOnUse">
      <stop offset="0" stop-color="#f3fafd"/>
      <stop offset=".2" stop-color="#e9f5f7"/>
      <stop offset=".4" stop-color="#cfe7ed"/>
      <stop offset=".8" stop-color="#a4d4df"/>
      <stop offset="1" stop-color="#87c9d6"/>
    </radialGradient>
    <linearGradient id="linear-gradient" x1="-209.7" y1="572.2" x2="587.7" y2="727.4" gradientTransform="translate(0 842) scale(1 -1)" gradientUnits="userSpaceOnUse">
      <stop offset="0" stop-color="#f3fafd"/>
      <stop offset="1" stop-color="#fff" stop-opacity="0"/>
    </linearGradient>
    <linearGradient id="linear-gradient1" x1="705.6" y1="567.7" x2="-31.1" y2="373.2" gradientTransform="translate(0 842) scale(1 -1)" gradientUnits="userSpaceOnUse">
      <stop offset="0" stop-color="#f3fafd"/>
      <stop offset="1" stop-color="#fff" stop-opacity="0"/>
    </linearGradient>
    <linearGradient id="linear-gradient2" x1="163.2" y1="-51.5" x2="156.7" y2="190.9" gradientTransform="translate(0 842) scale(1 -1)" gradientUnits="userSpaceOnUse">
      <stop offset="0" stop-color="#f3fafd"/>
      <stop offset=".2" stop-color="#e9f5f7"/>
      <stop offset=".4" stop-color="#cfe7ed"/>
      <stop offset=".8" stop-color="#a4d4df"/>
      <stop offset="1" stop-color="#87c9d6"/>
    </linearGradient>
    <linearGradient id="linear-gradient3" x1="455.2" y1="-28.6" x2="425.2" y2="233.1" gradientTransform="translate(0 842) scale(1 -1)" gradientUnits="userSpaceOnUse">
      <stop offset="0" stop-color="#f3fafd"/>
      <stop offset=".2" stop-color="#e9f5f7"/>
      <stop offset=".4" stop-color="#cfe7ed"/>
      <stop offset=".8" stop-color="#a4d4df"/>
      <stop offset="1" stop-color="#87c9d6"/>
    </linearGradient>
    <clipPath id="clippath">
      <rect class="st0" y="101.5" width="597" height="689"/>
    </clipPath>
    <linearGradient id="linear-gradient4" x1="172.3" y1="543.2" x2="287.7" y2="276.9" gradientTransform="translate(0 842) scale(1 -1)" gradientUnits="userSpaceOnUse">
      <stop offset="0" stop-color="#ef4462"/>
      <stop offset="0" stop-color="#db3e5a"/>
      <stop offset=".1" stop-color="#c0344e"/>
      <stop offset=".2" stop-color="#ad2d45"/>
      <stop offset=".3" stop-color="#a0293f"/>
      <stop offset=".5" stop-color="#99273c"/>
      <stop offset="1" stop-color="#97263b"/>
    </linearGradient>
    <linearGradient id="linear-gradient5" x1="4.8" y1="377.7" x2="65.9" y2="236.7" gradientTransform="translate(0 842) scale(1 -1)" gradientUnits="userSpaceOnUse">
      <stop offset="0" stop-color="#ef4462"/>
      <stop offset="0" stop-color="#db3e5a"/>
      <stop offset=".1" stop-color="#c0344e"/>
      <stop offset=".2" stop-color="#ad2d45"/>
      <stop offset=".3" stop-color="#a0293f"/>
      <stop offset=".5" stop-color="#99273c"/>
      <stop offset="1" stop-color="#97263b"/>
    </linearGradient>
    <linearGradient id="linear-gradient6" x1="58.6" y1="415" x2="131.7" y2="246.4" gradientTransform="translate(0 842) scale(1 -1)" gradientUnits="userSpaceOnUse">
      <stop offset="0" stop-color="#ef4462"/>
      <stop offset="0" stop-color="#db3e5a"/>
      <stop offset=".1" stop-color="#c0344e"/>
      <stop offset=".2" stop-color="#ad2d45"/>
      <stop offset=".3" stop-color="#a0293f"/>
      <stop offset=".5" stop-color="#99273c"/>
      <stop offset="1" stop-color="#97263b"/>
    </linearGradient>
    <linearGradient id="linear-gradient7" x1="31.5" y1="560.8" x2="96.2" y2="411.5" gradientTransform="translate(0 842) scale(1 -1)" gradientUnits="userSpaceOnUse">
      <stop offset="0" stop-color="#ef4462"/>
      <stop offset="0" stop-color="#db3e5a"/>
      <stop offset=".1" stop-color="#c0344e"/>
      <stop offset=".2" stop-color="#ad2d45"/>
      <stop offset=".3" stop-color="#a0293f"/>
      <stop offset=".5" stop-color="#99273c"/>
      <stop offset="1" stop-color="#97263b"/>
    </linearGradient>
    <linearGradient id="linear-gradient8" x1="310.3" y1="583.8" x2="435" y2="296.3" gradientTransform="translate(0 842) scale(1 -1)" gradientUnits="userSpaceOnUse">
      <stop offset="0" stop-color="#ef4462"/>
      <stop offset="0" stop-color="#db3e5a"/>
      <stop offset=".1" stop-color="#c0344e"/>
      <stop offset=".2" stop-color="#ad2d45"/>
      <stop offset=".3" stop-color="#a0293f"/>
      <stop offset=".5" stop-color="#99273c"/>
      <stop offset="1" stop-color="#97263b"/>
    </linearGradient>
    <linearGradient id="linear-gradient9" x1="397.6" y1="537.9" x2="499.9" y2="302" gradientTransform="translate(0 842) scale(1 -1)" gradientUnits="userSpaceOnUse">
      <stop offset="0" stop-color="#ef4462"/>
      <stop offset="0" stop-color="#db3e5a"/>
      <stop offset=".1" stop-color="#c0344e"/>
      <stop offset=".2" stop-color="#ad2d45"/>
      <stop offset=".3" stop-color="#a0293f"/>
      <stop offset=".5" stop-color="#99273c"/>
      <stop offset="1" stop-color="#97263b"/>
    </linearGradient>
    <linearGradient id="linear-gradient10" x1="476.7" y1="506.9" x2="564.5" y2="304.3" gradientTransform="translate(0 842) scale(1 -1)" gradientUnits="userSpaceOnUse">
      <stop offset="0" stop-color="#ef4462"/>
      <stop offset="0" stop-color="#db3e5a"/>
      <stop offset=".1" stop-color="#c0344e"/>
      <stop offset=".2" stop-color="#ad2d45"/>
      <stop offset=".3" stop-color="#a0293f"/>
      <stop offset=".5" stop-color="#99273c"/>
      <stop offset="1" stop-color="#97263b"/>
    </linearGradient>
    <linearGradient id="linear-gradient11" x1="548.2" y1="488.7" x2="625.9" y2="309.5" gradientTransform="translate(0 842) scale(1 -1)" gradientUnits="userSpaceOnUse">
      <stop offset="0" stop-color="#ef4462"/>
      <stop offset="0" stop-color="#db3e5a"/>
      <stop offset=".1" stop-color="#c0344e"/>
      <stop offset=".2" stop-color="#ad2d45"/>
      <stop offset=".3" stop-color="#a0293f"/>
      <stop offset=".5" stop-color="#99273c"/>
      <stop offset="1" stop-color="#97263b"/>
    </linearGradient>
    <linearGradient id="linear-gradient12" x1="478.2" y1="755.2" x2="634.9" y2="393.8" gradientTransform="translate(0 842) scale(1 -1)" gradientUnits="userSpaceOnUse">
      <stop offset="0" stop-color="#ef4462"/>
      <stop offset="0" stop-color="#db3e5a"/>
      <stop offset=".1" stop-color="#c0344e"/>
      <stop offset=".2" stop-color="#ad2d45"/>
      <stop offset=".3" stop-color="#a0293f"/>
      <stop offset=".5" stop-color="#99273c"/>
      <stop offset="1" stop-color="#97263b"/>
    </linearGradient>
    <linearGradient id="linear-gradient13" x1="125.7" y1="321.3" x2="368.1" y2="90.7" gradientTransform="translate(0 842) scale(1 -1)" gradientUnits="userSpaceOnUse">
      <stop offset="0" stop-color="#ef4462"/>
      <stop offset=".2" stop-color="#dd3e5b"/>
      <stop offset=".6" stop-color="#bd334d"/>
      <stop offset="1" stop-color="#97263b"/>
    </linearGradient>
    <linearGradient id="linear-gradient14" x1="185.7" y1="586.5" x2="192.5" y2="469.2" gradientTransform="translate(0 842) scale(1 -1)" gradientUnits="userSpaceOnUse">
      <stop offset="0" stop-color="#ef4462"/>
      <stop offset=".2" stop-color="#dd3e5b"/>
      <stop offset=".6" stop-color="#bd334d"/>
      <stop offset="1" stop-color="#97263b"/>
    </linearGradient>
    <linearGradient id="linear-gradient15" x1="194.4" y1="701.4" x2="196.9" y2="596.3" gradientTransform="translate(0 842) scale(1 -1)" gradientUnits="userSpaceOnUse">
      <stop offset="0" stop-color="#ef4462"/>
      <stop offset=".2" stop-color="#dd3e5b"/>
      <stop offset=".6" stop-color="#bd334d"/>
      <stop offset="1" stop-color="#97263b"/>
    </linearGradient>
    <linearGradient id="linear-gradient16" x1="134.7" y1="305.2" x2="281.3" y2="174.3" gradientTransform="translate(0 842) scale(1 -1)" gradientUnits="userSpaceOnUse">
      <stop offset="0" stop-color="#ef4462"/>
      <stop offset=".2" stop-color="#dd3e5b"/>
      <stop offset=".6" stop-color="#bd334d"/>
      <stop offset="1" stop-color="#97263b"/>
    </linearGradient>
    <linearGradient id="linear-gradient17" x1="297.6" y1="201.2" x2="273.3" y2="298.8" gradientTransform="translate(0 842) scale(1 -1)" gradientUnits="userSpaceOnUse">
      <stop offset="0" stop-color="#000"/>
      <stop offset="1" stop-color="#000" stop-opacity="0"/>
    </linearGradient>
    <linearGradient id="linear-gradient18" x1="322.2" y1="272.9" x2="257.2" y2="166.4" gradientTransform="translate(0 842) scale(1 -1)" gradientUnits="userSpaceOnUse">
      <stop offset="0" stop-color="#000"/>
      <stop offset="1" stop-color="#000" stop-opacity="0"/>
    </linearGradient>
    <linearGradient id="linear-gradient19" x1="244.7" y1="513.7" x2="295.9" y2="484" gradientTransform="translate(0 842) scale(1 -1)" gradientUnits="userSpaceOnUse">
      <stop offset="0" stop-color="#ef4462"/>
      <stop offset=".2" stop-color="#dd3e5b"/>
      <stop offset=".6" stop-color="#bd334d"/>
      <stop offset="1" stop-color="#97263b"/>
    </linearGradient>
    <linearGradient id="linear-gradient20" x1="251.5" y1="634.5" x2="297.6" y2="580.1" gradientTransform="translate(0 842) scale(1 -1)" gradientUnits="userSpaceOnUse">
      <stop offset="0" stop-color="#ef4462"/>
      <stop offset=".2" stop-color="#dd3e5b"/>
      <stop offset=".6" stop-color="#bd334d"/>
      <stop offset="1" stop-color="#97263b"/>
    </linearGradient>
    <linearGradient id="linear-gradient21" x1="235.7" y1="426.7" x2="278.2" y2="397.8" gradientTransform="translate(0 842) scale(1 -1)" gradientUnits="userSpaceOnUse">
      <stop offset="0" stop-color="#ef4462"/>
      <stop offset=".2" stop-color="#dd3e5b"/>
      <stop offset=".6" stop-color="#bd334d"/>
      <stop offset="1" stop-color="#97263b"/>
    </linearGradient>
    <linearGradient id="linear-gradient22" x1="228.3" y1="445.3" x2="318.9" y2="359.5" gradientTransform="translate(0 842) scale(1 -1)" gradientUnits="userSpaceOnUse">
      <stop offset="0" stop-color="#ef4462"/>
      <stop offset=".2" stop-color="#dd3e5b"/>
      <stop offset=".6" stop-color="#bd334d"/>
      <stop offset="1" stop-color="#97263b"/>
    </linearGradient>
    <linearGradient id="linear-gradient23" x1="179" y1="468.1" x2="166.1" y2="244" gradientTransform="translate(0 842) scale(1 -1)" gradientUnits="userSpaceOnUse">
      <stop offset="0" stop-color="#ef4462"/>
      <stop offset=".2" stop-color="#dd3e5b"/>
      <stop offset=".6" stop-color="#bd334d"/>
      <stop offset="1" stop-color="#97263b"/>
    </linearGradient>
    <linearGradient id="linear-gradient24" x1="167" y1="125.7" x2="186" y2="306.4" gradientTransform="translate(0 842) scale(1 -1)" gradientUnits="userSpaceOnUse">
      <stop offset="0" stop-color="#000"/>
      <stop offset="1" stop-color="#000" stop-opacity="0"/>
    </linearGradient>
    <linearGradient id="linear-gradient25" x1="202.4" y1="274.9" x2="170.2" y2="192" gradientTransform="translate(0 842) scale(1 -1)" gradientUnits="userSpaceOnUse">
      <stop offset="0" stop-color="#000"/>
      <stop offset="1" stop-color="#000" stop-opacity="0"/>
    </linearGradient>
    <linearGradient id="linear-gradient26" x1="181.4" y1="492.5" x2="177.1" y2="374.6" gradientTransform="translate(0 842) scale(1 -1)" gradientUnits="userSpaceOnUse">
      <stop offset="0" stop-color="#ef4462"/>
      <stop offset=".2" stop-color="#dd3e5b"/>
      <stop offset=".6" stop-color="#bd334d"/>
      <stop offset="1" stop-color="#97263b"/>
    </linearGradient>
    <linearGradient id="linear-gradient27" x1="239" y1="665.8" x2="306.2" y2="516.7" gradientTransform="translate(0 842) scale(1 -1)" gradientUnits="userSpaceOnUse">
      <stop offset="0" stop-color="#ef4462"/>
      <stop offset=".2" stop-color="#dd3e5b"/>
      <stop offset=".6" stop-color="#bd334d"/>
      <stop offset="1" stop-color="#97263b"/>
    </linearGradient>
    <linearGradient id="linear-gradient28" x1="227.4" y1="674.3" x2="269.3" y2="622.5" gradientTransform="translate(0 842) scale(1 -1)" gradientUnits="userSpaceOnUse">
      <stop offset="0" stop-color="#ef4462"/>
      <stop offset=".2" stop-color="#dd3e5b"/>
      <stop offset=".6" stop-color="#bd334d"/>
      <stop offset="1" stop-color="#97263b"/>
    </linearGradient>
    <linearGradient id="linear-gradient29" x1="246.1" y1="552.9" x2="294" y2="413.8" gradientTransform="translate(0 842) scale(1 -1)" gradientUnits="userSpaceOnUse">
      <stop offset="0" stop-color="#ef4462"/>
      <stop offset=".2" stop-color="#dd3e5b"/>
      <stop offset=".6" stop-color="#bd334d"/>
      <stop offset="1" stop-color="#97263b"/>
    </linearGradient>
    <linearGradient id="linear-gradient30" x1="233.4" y1="561.9" x2="263.4" y2="518" gradientTransform="translate(0 842) scale(1 -1)" gradientUnits="userSpaceOnUse">
      <stop offset="0" stop-color="#ef4462"/>
      <stop offset=".2" stop-color="#dd3e5b"/>
      <stop offset=".6" stop-color="#bd334d"/>
      <stop offset="1" stop-color="#97263b"/>
    </linearGradient>
    <linearGradient id="linear-gradient31" x1="254.3" y1="485.2" x2="255.3" y2="420.9" gradientTransform="translate(0 842) scale(1 -1)" gradientUnits="userSpaceOnUse">
      <stop offset="0" stop-color="#ef4462"/>
      <stop offset=".2" stop-color="#dd3e5b"/>
      <stop offset=".6" stop-color="#bd334d"/>
      <stop offset="1" stop-color="#97263b"/>
    </linearGradient>
    <linearGradient id="linear-gradient32" x1="269.9" y1="387.4" x2="241.3" y2="314.5" gradientTransform="translate(0 842) scale(1 -1)" gradientUnits="userSpaceOnUse">
      <stop offset="0" stop-color="#ef4462"/>
      <stop offset=".2" stop-color="#dd3e5b"/>
      <stop offset=".6" stop-color="#bd334d"/>
      <stop offset="1" stop-color="#97263b"/>
    </linearGradient>
    <linearGradient id="linear-gradient33" x1="522.2" y1="321.2" x2="-297.1" y2="58.5" gradientTransform="translate(0 842) scale(1 -1)" gradientUnits="userSpaceOnUse">
      <stop offset="0" stop-color="#ef4462"/>
      <stop offset=".2" stop-color="#dd3e5b"/>
      <stop offset=".6" stop-color="#bd334d"/>
      <stop offset="1" stop-color="#97263b"/>
    </linearGradient>
    <linearGradient id="linear-gradient34" x1="815.9" y1="355.1" x2="291.5" y2="208.2" gradientTransform="translate(0 842) scale(1 -1)" gradientUnits="userSpaceOnUse">
      <stop offset="0" stop-color="#ef4462"/>
      <stop offset=".2" stop-color="#dd3e5b"/>
      <stop offset=".6" stop-color="#bd334d"/>
      <stop offset="1" stop-color="#97263b"/>
    </linearGradient>
    <linearGradient id="linear-gradient35" x1="387.4" y1="-56.9" x2="205.8" y2="89.6" gradientTransform="translate(0 842) scale(1 -1)" gradientUnits="userSpaceOnUse">
      <stop offset="0" stop-color="#c6a48e"/>
      <stop offset="1" stop-color="#edd1bd"/>
    </linearGradient>
    <linearGradient id="linear-gradient36" x1="137.3" y1="9.2" x2="180.2" y2="214.4" gradientTransform="translate(0 842) scale(1 -1)" gradientUnits="userSpaceOnUse">
      <stop offset="0" stop-color="#c6a48e"/>
      <stop offset="1" stop-color="#edd1bd"/>
    </linearGradient>
    <linearGradient id="linear-gradient37" x1="271.1" y1="215.6" x2="182.7" y2="125.1" gradientTransform="translate(0 842) scale(1 -1)" gradientUnits="userSpaceOnUse">
      <stop offset="0" stop-color="#ef4462"/>
      <stop offset=".2" stop-color="#dd3e5b"/>
      <stop offset=".6" stop-color="#bd334d"/>
      <stop offset="1" stop-color="#97263b"/>
    </linearGradient>
    <linearGradient id="linear-gradient38" x1="269.2" y1="168.8" x2="166.5" y2="43.7" gradientTransform="translate(0 842) scale(1 -1)" gradientUnits="userSpaceOnUse">
      <stop offset="0" stop-color="#ef4462"/>
      <stop offset=".2" stop-color="#dd3e5b"/>
      <stop offset=".6" stop-color="#bd334d"/>
      <stop offset="1" stop-color="#97263b"/>
    </linearGradient>
    <linearGradient id="linear-gradient39" x1="232.8" y1="203.5" x2="242.8" y2="59.8" gradientTransform="translate(0 842) scale(1 -1)" gradientUnits="userSpaceOnUse">
      <stop offset="0" stop-color="#ef4462"/>
      <stop offset=".2" stop-color="#dd3e5b"/>
      <stop offset=".6" stop-color="#bd334d"/>
      <stop offset="1" stop-color="#97263b"/>
    </linearGradient>
    <linearGradient id="linear-gradient40" x1="216.3" y1="152.3" x2="262.6" y2="62.4" gradientTransform="translate(0 842) scale(1 -1)" gradientUnits="userSpaceOnUse">
      <stop offset="0" stop-color="#ef4462"/>
      <stop offset=".2" stop-color="#dd3e5b"/>
      <stop offset=".6" stop-color="#bd334d"/>
      <stop offset="1" stop-color="#97263b"/>
    </linearGradient>
    <linearGradient id="linear-gradient41" x1="-66.1" y1="590.7" x2="-1.3" y2="441.4" gradientTransform="translate(0 842) scale(1 -1)" gradientUnits="userSpaceOnUse">
      <stop offset="0" stop-color="#ef4462"/>
      <stop offset="0" stop-color="#db3e5a"/>
      <stop offset=".1" stop-color="#c0344e"/>
      <stop offset=".2" stop-color="#ad2d45"/>
      <stop offset=".3" stop-color="#a0293f"/>
      <stop offset=".5" stop-color="#99273c"/>
      <stop offset="1" stop-color="#97263b"/>
    </linearGradient>
    <linearGradient id="linear-gradient42" x1="68.1" y1="574.6" x2="195.1" y2="281.8" gradientTransform="translate(0 842) scale(1 -1)" gradientUnits="userSpaceOnUse">
      <stop offset="0" stop-color="#ef4462"/>
      <stop offset="0" stop-color="#db3e5a"/>
      <stop offset=".1" stop-color="#c0344e"/>
      <stop offset=".2" stop-color="#ad2d45"/>
      <stop offset=".3" stop-color="#a0293f"/>
      <stop offset=".5" stop-color="#99273c"/>
      <stop offset="1" stop-color="#97263b"/>
    </linearGradient>
    <linearGradient id="linear-gradient43" x1="17.2" y1="509.6" x2="122.6" y2="266.7" gradientTransform="translate(0 842) scale(1 -1)" gradientUnits="userSpaceOnUse">
      <stop offset="0" stop-color="#ef4462"/>
      <stop offset="0" stop-color="#db3e5a"/>
      <stop offset=".1" stop-color="#c0344e"/>
      <stop offset=".2" stop-color="#ad2d45"/>
      <stop offset=".3" stop-color="#a0293f"/>
      <stop offset=".5" stop-color="#99273c"/>
      <stop offset="1" stop-color="#97263b"/>
    </linearGradient>
    <linearGradient id="linear-gradient44" x1="-27.1" y1="456.7" x2="61.6" y2="252.1" gradientTransform="translate(0 842) scale(1 -1)" gradientUnits="userSpaceOnUse">
      <stop offset="0" stop-color="#ef4462"/>
      <stop offset="0" stop-color="#db3e5a"/>
      <stop offset=".1" stop-color="#c0344e"/>
      <stop offset=".2" stop-color="#ad2d45"/>
      <stop offset=".3" stop-color="#a0293f"/>
      <stop offset=".5" stop-color="#99273c"/>
      <stop offset="1" stop-color="#97263b"/>
    </linearGradient>
    <linearGradient id="linear-gradient45" x1="205.9" y1="717.4" x2="204.7" y2="659.4" gradientTransform="translate(0 842) scale(1 -1)" gradientUnits="userSpaceOnUse">
      <stop offset="0" stop-color="#ef4462"/>
      <stop offset=".2" stop-color="#dd3e5b"/>
      <stop offset=".6" stop-color="#bd334d"/>
      <stop offset="1" stop-color="#97263b"/>
    </linearGradient>
    <linearGradient id="linear-gradient46" x1="205.1" y1="725.6" x2="212.1" y2="687.5" gradientTransform="translate(0 842) scale(1 -1)" gradientUnits="userSpaceOnUse">
      <stop offset="0" stop-color="#ef4462"/>
      <stop offset=".2" stop-color="#dd3e5b"/>
      <stop offset=".6" stop-color="#bd334d"/>
      <stop offset="1" stop-color="#97263b"/>
    </linearGradient>
    <linearGradient id="linear-gradient47" x1="300.5" y1="686.1" x2="306.9" y2="650.6" gradientTransform="translate(0 842) scale(1 -1)" gradientUnits="userSpaceOnUse">
      <stop offset="0" stop-color="#ef4462"/>
      <stop offset=".2" stop-color="#dd3e5b"/>
      <stop offset=".6" stop-color="#bd334d"/>
      <stop offset="1" stop-color="#97263b"/>
    </linearGradient>
    <linearGradient id="linear-gradient48" x1="298.4" y1="692" x2="343.4" y2="588.2" gradientTransform="translate(0 842) scale(1 -1)" gradientUnits="userSpaceOnUse">
      <stop offset="0" stop-color="#ef4462"/>
      <stop offset=".2" stop-color="#dd3e5b"/>
      <stop offset=".6" stop-color="#bd334d"/>
      <stop offset="1" stop-color="#97263b"/>
    </linearGradient>
    <linearGradient id="linear-gradient49" x1="289.3" y1="356.8" x2="353.1" y2="209.8" gradientTransform="translate(0 842) scale(1 -1)" gradientUnits="userSpaceOnUse">
      <stop offset="0" stop-color="#ef4462"/>
      <stop offset="0" stop-color="#db3e5a"/>
      <stop offset=".1" stop-color="#c0344e"/>
      <stop offset=".2" stop-color="#ad2d45"/>
      <stop offset=".3" stop-color="#a0293f"/>
      <stop offset=".5" stop-color="#99273c"/>
      <stop offset="1" stop-color="#97263b"/>
    </linearGradient>
    <linearGradient id="linear-gradient50" x1="381.4" y1="784.4" x2="538.2" y2="423" gradientTransform="translate(0 842) scale(1 -1)" gradientUnits="userSpaceOnUse">
      <stop offset="0" stop-color="#ef4462"/>
      <stop offset="0" stop-color="#db3e5a"/>
      <stop offset=".1" stop-color="#c0344e"/>
      <stop offset=".2" stop-color="#ad2d45"/>
      <stop offset=".3" stop-color="#a0293f"/>
      <stop offset=".5" stop-color="#99273c"/>
      <stop offset="1" stop-color="#97263b"/>
    </linearGradient>
    <linearGradient id="linear-gradient51" x1="187.1" y1="619.8" x2="324.9" y2="302.1" gradientTransform="translate(0 842) scale(1 -1)" gradientUnits="userSpaceOnUse">
      <stop offset="0" stop-color="#ef4462"/>
      <stop offset="0" stop-color="#db3e5a"/>
      <stop offset=".1" stop-color="#c0344e"/>
      <stop offset=".2" stop-color="#ad2d45"/>
      <stop offset=".3" stop-color="#a0293f"/>
      <stop offset=".5" stop-color="#99273c"/>
      <stop offset="1" stop-color="#97263b"/>
    </linearGradient>
    <linearGradient id="linear-gradient52" x1="270.5" y1="573.3" x2="385.4" y2="308.3" gradientTransform="translate(0 842) scale(1 -1)" gradientUnits="userSpaceOnUse">
      <stop offset="0" stop-color="#ef4462"/>
      <stop offset="0" stop-color="#db3e5a"/>
      <stop offset=".1" stop-color="#c0344e"/>
      <stop offset=".2" stop-color="#ad2d45"/>
      <stop offset=".3" stop-color="#a0293f"/>
      <stop offset=".5" stop-color="#99273c"/>
      <stop offset="1" stop-color="#97263b"/>
    </linearGradient>
    <linearGradient id="linear-gradient53" x1="352.1" y1="542.5" x2="450.4" y2="315.9" gradientTransform="translate(0 842) scale(1 -1)" gradientUnits="userSpaceOnUse">
      <stop offset="0" stop-color="#ef4462"/>
      <stop offset="0" stop-color="#db3e5a"/>
      <stop offset=".1" stop-color="#c0344e"/>
      <stop offset=".2" stop-color="#ad2d45"/>
      <stop offset=".3" stop-color="#a0293f"/>
      <stop offset=".5" stop-color="#99273c"/>
      <stop offset="1" stop-color="#97263b"/>
    </linearGradient>
    <linearGradient id="linear-gradient54" x1="431.2" y1="519.6" x2="515.6" y2="324.9" gradientTransform="translate(0 842) scale(1 -1)" gradientUnits="userSpaceOnUse">
      <stop offset="0" stop-color="#ef4462"/>
      <stop offset="0" stop-color="#db3e5a"/>
      <stop offset=".1" stop-color="#c0344e"/>
      <stop offset=".2" stop-color="#ad2d45"/>
      <stop offset=".3" stop-color="#a0293f"/>
      <stop offset=".5" stop-color="#99273c"/>
      <stop offset="1" stop-color="#97263b"/>
    </linearGradient>
    <linearGradient id="linear-gradient55" x1="505.3" y1="503.1" x2="578.3" y2="334.7" gradientTransform="translate(0 842) scale(1 -1)" gradientUnits="userSpaceOnUse">
      <stop offset="0" stop-color="#ef4462"/>
      <stop offset="0" stop-color="#db3e5a"/>
      <stop offset=".1" stop-color="#c0344e"/>
      <stop offset=".2" stop-color="#ad2d45"/>
      <stop offset=".3" stop-color="#a0293f"/>
      <stop offset=".5" stop-color="#99273c"/>
      <stop offset="1" stop-color="#97263b"/>
    </linearGradient>
    <linearGradient id="linear-gradient56" x1="571.8" y1="495.6" x2="637.8" y2="343.4" gradientTransform="translate(0 842) scale(1 -1)" gradientUnits="userSpaceOnUse">
      <stop offset="0" stop-color="#ef4462"/>
      <stop offset="0" stop-color="#db3e5a"/>
      <stop offset=".1" stop-color="#c0344e"/>
      <stop offset=".2" stop-color="#ad2d45"/>
      <stop offset=".3" stop-color="#a0293f"/>
      <stop offset=".5" stop-color="#99273c"/>
      <stop offset="1" stop-color="#97263b"/>
    </linearGradient>
    <linearGradient id="linear-gradient57" x1="308.6" y1="-402.7" x2="297.2" y2="88.7" gradientTransform="translate(0 842) scale(1 -1)" gradientUnits="userSpaceOnUse">
      <stop offset="0" stop-color="#f3fafd"/>
      <stop offset=".1" stop-color="#e9f5f9"/>
      <stop offset=".3" stop-color="#cee9f1"/>
      <stop offset=".6" stop-color="#a2d7e7"/>
      <stop offset=".9" stop-color="#5fc2da"/>
      <stop offset="1" stop-color="#3dbbd6"/>
    </linearGradient>
    <linearGradient id="linear-gradient58" x1="294.9" y1="-269.2" x2="299.2" y2="71.1" gradientTransform="translate(0 842) scale(1 -1)" gradientUnits="userSpaceOnUse">
      <stop offset="0" stop-color="#000"/>
      <stop offset="1" stop-color="#000" stop-opacity="0"/>
    </linearGradient>
  </defs>
  <g id="bg">
    <rect class="st64" y="-1.2" width="597" height="844.3"/>
  </g>
  <g id="clouds">
    <path class="st65" d="M459.8,157.5L0,276.9v-87.3c13.9-9.5,28.8-16,43.1-16,50.8,0,52,19.7,52,19.7,0,0,18.1-31.5,52.4-31.5s39.3,23.6,39.3,23.6c0,0,17.2-35.4,43.1-23.6,25.9,11.8,63.7,38.6,229.8-4.3Z"/>
    <path class="st28" d="M597,227.5v165.1c-156.7,20.4-492.9,88-501.6,89.8,7.5-1.9,239.9-61.9,243.1-90.6,3.2-29.2,12.9-20.1,57.4-36.7,44.5-16.6,26.2-42.4,58.4-76.6,32.2-34.2,54.7-7.6,54.7-7.6,0,0,11.8-34.3,38.2-44,14.8-5.4,34.9-2.7,49.9.7Z"/>
  </g>
  <g id="skyline">
    <polygon class="st27" points="43.1 779.4 48.9 708.3 64.3 698.4 67.5 654.6 80.9 660 78.9 744.4 83.5 711.2 98.9 709 102.1 747.6 106.9 724.7 155.5 722.2 152.9 763 289.1 765.1 289.1 799.5 213 802.8 31.4 799.5 43.1 779.4"/>
    <path class="st29" d="M312.5,803.4l2.5-136.6,27.9-3.9,1,50.5,25.6-20.9v-32.7l11.4-8.9v-139.5l20.5,26.1,11,150,28.5,30.2v-50.9s13.7-22.9,17.2-39.6c34.3,36.2,22.9,123.2,22.9,123.2l29.9-14.9v-40l24.5-3v-52l32,31.8v130.6l-175.5,24.4-79.5-23.9Z"/>
  </g>
  <g id="bridge">
    <g class="st67">
      <g>
        <g class="st66">
          <line class="st22" x1="242.3" y1="269.5" x2="217.7" y2="594.4"/>
          <line class="st23" x1="43.1" y1="448.7" x2="27.6" y2="620.9"/>
          <line class="st21" x1="106.9" y1="407.2" x2="83.5" y2="615.5"/>
          <path class="st19" d="M303.4,164.4s-122.3,310.8-489.1,360.1"/>
        </g>
        <g class="st66">
          <line class="st18" x1="370.4" y1="233.3" x2="374.9" y2="570.7"/>
          <line class="st20" x1="443.2" y1="285.4" x2="454.2" y2="558.7"/>
          <line class="st10" x1="514" y1="320" x2="527.2" y2="552.8"/>
          <line class="st12" x1="577.2" y1="341.8" x2="597" y2="543.9"/>
          <path class="st11" d="M308.6,161.4s108.3,205.7,495.8,212.2"/>
        </g>
        <polygon class="st50" points="316.3 489.5 309.7 496.7 309.3 516.2 308.6 543.6 307.5 595.9 307.3 601.9 305.4 688.9 303 795.6 279.3 797.6 284.1 679.5 287.4 598.5 287.5 595.9 289.9 537.4 290.9 511.6 258.9 503.4 212.1 491.5 208.6 585.3 206.8 635 206.4 646.9 206.2 650.8 205.2 677.5 204.8 688.6 204.5 688.8 204.8 689.1 204.4 700.8 203.2 731.7 202.8 742.8 201.4 781 177.7 782.7 185.3 643.9 188.7 582 194 486.9 195.8 453.8 213.3 459 261.4 473.2 292.1 482.3 309.9 487.6 316.3 489.5"/>
        <polygon class="st54" points="205.9 270.8 200.9 360.5 173 369.3 180.2 295.5 180.2 295.4 169.3 282.3 181.8 278.3 205.9 270.8"/>
        <polygon class="st51" points="210.8 166.1 210.8 181.3 210.1 194.1 205.9 270.8 181.8 278.3 190.5 188.5 179.5 177.2 210.8 166.1"/>
        <polygon class="st52" points="290.9 511.6 289.9 537.4 287.5 595.9 287.4 598.5 284.1 679.5 279.3 797.6 235.2 791.3 245.6 664.5 251.2 596.2 251.5 592.5 254.5 556.3 258.2 512.2 290.9 511.6"/>
        <path class="st53" d="M308.6,543.6l-1.2,52.3c-6.5-.1-14.5-.2-20,0-1.4,0-2.7,0-3.7.2-5.4.5-21.3.3-32.6.2l.3-3.7,3-36.2,35.4-18.9,18.8,6.1Z"/>
        <path class="st49" d="M307.3,601.9l-2,87c-6.5-3.1-13.7-6.3-21.3-9.5-12.1-5.1-25.2-10.1-38.5-15l5.9-72,35.9,6,19.9,3.3Z"/>
        <polygon class="st55" points="298.6 322.5 296 387.4 269.1 379.4 273.7 323.3 298.6 322.5"/>
        <polygon class="st61" points="302.9 215.9 299.7 296.1 276.5 289.2 282.5 216.5 300 215.2 302.9 215.9"/>
        <polygon class="st60" points="294.8 415.1 292.1 482.3 261.4 473.2 266.1 415.1 294.8 415.1"/>
        <polygon class="st57" points="318.4 394.1 311.8 401.2 311.8 401.2 311.4 419.2 309.9 487.6 292.1 482.3 294.8 415.1 266.7 408 215.6 395.2 215.3 402.5 213.3 459 195.8 453.8 200.9 360.5 203 359.9 216.8 363.9 269.1 379.4 296 387.4 296 387.4 312 392.2 312 392.2 318.4 394.1"/>
        <polygon class="st56" points="195.8 453.8 194 486.9 190.6 547.4 188.7 582 187.6 602.3 185.3 643.9 177.7 782.7 133.7 775.7 147.6 632.1 150 606.5 152.5 581.5 153.6 569.3 153.7 569.3 162.3 480.3 151.5 467.7 163.9 463.8 195.8 453.8"/>
        <polygon class="st58" points="209.9 551.6 208.1 600 187.6 602.3 150 606.5 152.5 581.5 153.6 569.3 153.7 569.3 190.6 547.4 209.9 551.6"/>
        <path class="st59" d="M191,603.4l17.9,2-2.1,29.6-.4,11.8v3.9c-7.4-2.4-14.4-4.7-21-6.8-15.7-5.1-29.1-9.2-37.8-11.8l2.2-23.2,35,1.2,6.2-6.7Z"/>
        <polygon class="st63" points="200.9 360.5 195.8 453.8 163.9 463.8 171.4 385.4 160.6 373.2 173 369.3 200.9 360.5"/>
        <line class="st2" x1="219" y1="302.6" x2="208.2" y2="299.9"/>
        <polygon class="st62" points="323.9 196.3 316.3 200.5 315.9 219 314.1 300.4 299.7 296.1 302.9 215.9 300 215.2 282.9 211.2 223 197.1 222.9 197.1 222.8 199.6 220.1 272.5 209.9 269.5 205.9 270.8 210.1 194.1 210.8 181.3 210.8 166.1 299.3 189.8 306 191.6 311.3 193 323.9 196.3"/>
        <polygon class="st47" points="300 215.2 282.5 216.5 222.8 204.4 223 197.1 282.9 211.2 300 215.2"/>
        <polygon class="st48" points="320.4 302.2 314.1 309.1 313.7 326.3 313.5 326.3 312 392.2 296 387.4 296 387.4 298.6 322.5 274.3 316.4 219 302.6 218.7 311.6 216.8 363.9 203 359.9 200.9 360.5 205.9 270.8 209.9 269.5 220.1 272.5 276.5 289.2 299.7 296.1 314.1 300.4 314.1 300.4 320.4 302.2"/>
        <polygon class="st31" points="298.6 322.5 273.7 323.3 218.7 311.6 219 302.6 274.3 316.4 298.6 322.5"/>
        <polygon class="st30" points="294.8 415.1 266.1 415.1 215.3 402.5 215.6 395.2 266.7 408 294.8 415.1"/>
        <polygon class="st33" points="290.9 511.6 258.2 512.2 211.8 501.1 212.1 491.5 258.9 503.4 290.9 511.6"/>
        <polygon class="st38" points="-32.3 630.4 651.9 521.7 651.9 547.4 -32.3 647.5 -32.3 630.4"/>
        <polygon class="st35" points="186.9 615.5 306.9 612.5 646.7 582 651.9 547.4 186.9 615.5"/>
        <path class="st37" d="M316.3,804.8l-99.4,6.4-43.1-11.7c1.1-14.7,6-55.1,6-55.1l126.5,16.1,10.1,44.3Z"/>
        <path class="st39" d="M179.8,744.4s-4.9,40.4-6,55.1l-14.8-4-37.9-26.1,6.4-25h52.3Z"/>
        <polygon class="st36" points="266.4 637.1 265.7 648.4 239.7 665.5 232.1 670.6 204.8 688.6 205.2 677.5 225.3 664.3 232.9 659.2 266.4 637.1"/>
        <polygon class="st32" points="262.8 692.4 262.4 698.3 262.4 698.4 262 703.7 237.9 719.6 230.5 724.5 202.8 742.8 203.2 731.7 223.6 718.3 231.1 713.3 258.7 695.1 262.8 692.4"/>
        <polygon class="st34" points="263.3 687.4 262.4 698.3 262.4 698.4 258.7 695.1 232.1 670.6 225.3 664.3 206.4 646.9 206.8 635 232.9 659.2 239.7 665.5 263.3 687.4"/>
        <polygon class="st40" points="259.6 739.7 258.9 750.3 230.5 724.5 223.6 718.3 204.4 700.8 204.8 689.1 231.1 713.3 237.9 719.6 259.6 739.7"/>
        <g>
          <path class="st16" d="M205.9,134.4s-122.3,310.8-489.1,360.1"/>
          <line class="st17" x1="149.3" y1="233.3" x2="113.9" y2="594.4"/>
          <line class="st14" x1="88.6" y1="302.6" x2="51.2" y2="605.2"/>
          <line class="st15" x1="28.6" y1="362.2" x2="5.8" y2="613"/>
        </g>
        <polygon class="st44" points="208.2 167 209.9 128.5 205.3 130.2 200.9 169.6 208.2 167"/>
        <polygon class="st41" points="209.9 128.5 213.6 129.7 213.6 166.9 210.8 166.1 208.2 167 209.9 128.5"/>
        <polygon class="st43" points="307.6 154.6 306 191.6 299.3 189.8 303 156.3 307.6 154.6"/>
        <polygon class="st42" points="311.3 155.8 311.3 193 306 191.6 307.6 154.6 311.3 155.8"/>
        <line class="st13" x1="-8.5" y1="615.5" x2="651" y2="501.9"/>
        <g>
          <path class="st8" d="M211.9,132.2s108.3,205.7,495.8,212.2"/>
          <line class="st7" x1="260.7" y1="191.4" x2="251.4" y2="570.7"/>
          <line class="st9" x1="327.9" y1="244.9" x2="327.9" y2="557.5"/>
          <line class="st5" x1="395.8" y1="281.6" x2="406.7" y2="543.9"/>
          <line class="st4" x1="466.1" y1="308.3" x2="480.6" y2="531.2"/>
          <line class="st6" x1="536.5" y1="326.5" x2="547.1" y2="519.8"/>
          <line class="st3" x1="597" y1="336.5" x2="612.5" y2="508.5"/>
        </g>
      </g>
    </g>
  </g>
  <g id="water">
    <path id="back_wave" class="st45" d="M597,774.2v68.9H0v-79.7l8.5-7.2s74.9-12.1,155,7.2c80.1,19.3,174.4,27.5,259.5,5.9,85.1-21.6,173.9,4.9,173.9,4.9Z"/>
    <path id="front_wave" class="st46" d="M597,816v27.1H0v-37.8l8.5-7.2s74.9-12.1,155,7.2c80.1,19.3,174.4,27.5,259.5,5.9,85.1-21.6,173.9,4.9,173.9,4.9Z"/>
    <path id="texture_3" class="st1" d="M89.5,771.3s20.7-5.2,59.4,2.9c38.8,8.1,63.8,19.8,89.6,20.1"/>
    <path id="texture_2" class="st1" d="M395,808c15.3-1.9,55.8-21.9,109.6-21.4"/>
    <path id="textrue_1" class="st1" d="M119.5,782s21.3-.8,53.8,9"/>
  </g>
  <g id="visit">
    <text class="st25" transform="translate(111.8 99.3)"><tspan x="0" y="0">SAN FRANSISCO</tspan></text>
    <text class="st24" transform="translate(260.9 60.9)"><tspan x="0" y="0">VISIT</tspan></text>
  </g>
  <g id="border">
    <path class="st26" d="M-8.5-8.5v858.9h612.3V-8.5H-8.5ZM585,831.1H12V10.8h572.9v820.2Z"/>
  </g>
</svg>